{"title":"APDS-60 Starring_ Honami Kanzaki ç¥žå´Žä¿å¥ˆç¾Ž","uid":14455894,"size":731164425,"categoryP":"porn","categoryS":"movies","magnet":"?xt=urn:btih:02fb4b803d74b58df7be9dcacf62459a70d04bfa&amp;dn=APDS-60+Starring_+Honami+Kanzaki+%E7%A5%9E%E5%B4%8E%E4%BF%9D%E5%A5%88%E7%BE%8E&amp;tr=udp%3A%2F%2Ftracker.leechers-paradise.org%3A6969&amp;tr=udp%3A%2F%2Fzer0day.ch%3A1337&amp;tr=udp%3A%2F%2Fopen.demonii.com%3A1337&amp;tr=udp%3A%2F%2Ftracker.coppersurfer.tk%3A6969&amp;tr=udp%3A%2F%2Fexodus.desync.com%3A6969","seeders":0,"leechers":1,"uploader":"drdre10","files":3,"time":1461793824,"description":"screen shots &amp; cover are included in torrent.\r\n\r\n\r\nmovie is censored (mosaic)\r\n\r\n\r\nFormat                                   : AVI\r\nFormat/Info                              : Audio Video Interleave\r\nFile size                                : 697 MiB\r\nDuration                                 : 1h 56mn\r\nOverall bit rate                         : 836 Kbps\r\nWriting library                          : This file was made by AviUtl 0.99.\r\n\r\nVideo\r\nID                                       : 0\r\nFormat                                   : MPEG-4 Visual\r\nFormat settings, BVOP                    : 1\r\nFormat settings, QPel                    : No\r\nFormat settings, GMC                     : No warppoints\r\nFormat settings, Matrix                  : Default (H.263)\r\nMuxing mode                              : Packed bitstream\r\nCodec ID                                 : DX50\r\nCodec ID/Hint                            : DivX 5\r\nDuration                                 : 1h 56mn\r\nBit rate                                 : 776 Kbps\r\nWidth                                    : 416 pixels\r\nHeight                                   : 304 pixels\r\nDisplay aspect ratio                     : 4:3\r\nFrame rate                               : 29.970 fps\r\nColor space                              : YUV\r\nChroma subsampling                       : 4:2:0\r\nBit depth                                : 8 bits\r\nScan type                                : Progressive\r\nCompression mode                         : Lossy\r\nBits/(Pixel*Frame)                       : 0.205\r\nStream size                              : 647 MiB (93%)\r\nWriting library                          : DivX 5.2.1 (WaffleDay) (UTC 2004-09-08)\r\n\r\nAudio\r\nID                                       : 1\r\nFormat                                   : MPEG Audio\r\nFormat version                           : Version 2\r\nFormat profile                           : Layer 3\r\nMode                                     : Joint stereo\r\nMode extension                           : Intensity Stereo + MS Stereo\r\nCodec ID                                 : 55\r\nCodec ID/Hint                            : MP3\r\nDuration                                 : 1h 56mn\r\nBit rate mode                            : Constant\r\nBit rate                                 : 48.0 Kbps\r\nChannel(s)                               : 2 channels\r\nSampling rate                            : 24.0 KHz\r\nCompression mode                         : Lossy\r\nStream size                              : 40.0 MiB (6%)\r\nAlignment                                : Split accross interleaves\r\nInterleave, duration                     : 33 ms (1.00 video frame)\r\nInterleave, preload duration             : 4 ms","torrent":{"xt":"urn:btih:02fb4b803d74b58df7be9dcacf62459a70d04bfa","amp;dn":"APDS-60+Starring_+Honami+Kanzaki+%E7%A5%9E%E5%B4%8E%E4%BF%9D%E5%A5%88%E7%BE%8E","amp;tr":["udp%3A%2F%2Ftracker.leechers-paradise.org%3A6969","udp%3A%2F%2Fzer0day.ch%3A1337","udp%3A%2F%2Fopen.demonii.com%3A1337","udp%3A%2F%2Ftracker.coppersurfer.tk%3A6969","udp%3A%2F%2Fexodus.desync.com%3A6969"],"infoHash":"02fb4b803d74b58df7be9dcacf62459a70d04bfa","infoHashBuffer":{"type":"Buffer","data":[2,251,75,128,61,116,181,141,247,190,157,202,207,98,69,154,112,208,75,250]},"announce":[],"urlList":[]}}